<?xml version="1.0"?>
<svg xmlns="http://www.w3.org/2000/svg" xmlns:xlink="http://www.w3.org/1999/xlink" version="1.1" width="500px" height="500px" viewBox="0 0 500 500"><defs><rect id="block" width="13.5135135135" height="13.5135135135" fill="#000000" fill-opacity="1"/></defs><rect x="0" y="0" width="500" height="500" fill="#ffffff" fill-opacity="1"/><use x="0.0000000000" y="0.0000000000" xlink:href="#block"/><use x="13.5135135135" y="0.0000000000" xlink:href="#block"/><use x="27.0270270270" y="0.0000000000" xlink:href="#block"/><use x="40.5405405405" y="0.0000000000" xlink:href="#block"/><use x="54.0540540541" y="0.0000000000" xlink:href="#block"/><use x="67.5675675676" y="0.0000000000" xlink:href="#block"/><use x="81.0810810811" y="0.0000000000" xlink:href="#block"/><use x="148.6486486486" y="0.0000000000" xlink:href="#block"/><use x="162.1621621622" y="0.0000000000" xlink:href="#block"/><use x="175.6756756757" y="0.0000000000" xlink:href="#block"/><use x="189.1891891892" y="0.0000000000" xlink:href="#block"/><use x="216.2162162162" y="0.0000000000" xlink:href="#block"/><use x="243.2432432432" y="0.0000000000" xlink:href="#block"/><use x="256.7567567568" y="0.0000000000" xlink:href="#block"/><use x="310.8108108108" y="0.0000000000" xlink:href="#block"/><use x="337.8378378378" y="0.0000000000" xlink:href="#block"/><use x="364.8648648649" y="0.0000000000" xlink:href="#block"/><use x="405.4054054054" y="0.0000000000" xlink:href="#block"/><use x="418.9189189189" y="0.0000000000" xlink:href="#block"/><use x="432.4324324324" y="0.0000000000" xlink:href="#block"/><use x="445.9459459459" y="0.0000000000" xlink:href="#block"/><use x="459.4594594595" y="0.0000000000" xlink:href="#block"/><use x="472.9729729730" y="0.0000000000" xlink:href="#block"/><use x="486.4864864865" y="0.0000000000" xlink:href="#block"/><use x="0.0000000000" y="13.5135135135" xlink:href="#block"/><use x="81.0810810811" y="13.5135135135" xlink:href="#block"/><use x="108.1081081081" y="13.5135135135" xlink:href="#block"/><use x="121.6216216216" y="13.5135135135" xlink:href="#block"/><use x="189.1891891892" y="13.5135135135" xlink:href="#block"/><use x="202.7027027027" y="13.5135135135" xlink:href="#block"/><use x="229.7297297297" y="13.5135135135" xlink:href="#block"/><use x="256.7567567568" y="13.5135135135" xlink:href="#block"/><use x="270.2702702703" y="13.5135135135" xlink:href="#block"/><use x="324.3243243243" y="13.5135135135" xlink:href="#block"/><use x="337.8378378378" y="13.5135135135" xlink:href="#block"/><use x="378.3783783784" y="13.5135135135" xlink:href="#block"/><use x="405.4054054054" y="13.5135135135" xlink:href="#block"/><use x="486.4864864865" y="13.5135135135" xlink:href="#block"/><use x="0.0000000000" y="27.0270270270" xlink:href="#block"/><use x="27.0270270270" y="27.0270270270" xlink:href="#block"/><use x="40.5405405405" y="27.0270270270" xlink:href="#block"/><use x="54.0540540541" y="27.0270270270" xlink:href="#block"/><use x="81.0810810811" y="27.0270270270" xlink:href="#block"/><use x="135.1351351351" y="27.0270270270" xlink:href="#block"/><use x="148.6486486486" y="27.0270270270" xlink:href="#block"/><use x="189.1891891892" y="27.0270270270" xlink:href="#block"/><use x="202.7027027027" y="27.0270270270" xlink:href="#block"/><use x="229.7297297297" y="27.0270270270" xlink:href="#block"/><use x="283.7837837838" y="27.0270270270" xlink:href="#block"/><use x="297.2972972973" y="27.0270270270" xlink:href="#block"/><use x="324.3243243243" y="27.0270270270" xlink:href="#block"/><use x="337.8378378378" y="27.0270270270" xlink:href="#block"/><use x="351.3513513514" y="27.0270270270" xlink:href="#block"/><use x="405.4054054054" y="27.0270270270" xlink:href="#block"/><use x="432.4324324324" y="27.0270270270" xlink:href="#block"/><use x="445.9459459459" y="27.0270270270" xlink:href="#block"/><use x="459.4594594595" y="27.0270270270" xlink:href="#block"/><use x="486.4864864865" y="27.0270270270" xlink:href="#block"/><use x="0.0000000000" y="40.5405405405" xlink:href="#block"/><use x="27.0270270270" y="40.5405405405" xlink:href="#block"/><use x="40.5405405405" y="40.5405405405" xlink:href="#block"/><use x="54.0540540541" y="40.5405405405" xlink:href="#block"/><use x="81.0810810811" y="40.5405405405" xlink:href="#block"/><use x="135.1351351351" y="40.5405405405" xlink:href="#block"/><use x="162.1621621622" y="40.5405405405" xlink:href="#block"/><use x="229.7297297297" y="40.5405405405" xlink:href="#block"/><use x="283.7837837838" y="40.5405405405" xlink:href="#block"/><use x="337.8378378378" y="40.5405405405" xlink:href="#block"/><use x="351.3513513514" y="40.5405405405" xlink:href="#block"/><use x="364.8648648649" y="40.5405405405" xlink:href="#block"/><use x="378.3783783784" y="40.5405405405" xlink:href="#block"/><use x="405.4054054054" y="40.5405405405" xlink:href="#block"/><use x="432.4324324324" y="40.5405405405" xlink:href="#block"/><use x="445.9459459459" y="40.5405405405" xlink:href="#block"/><use x="459.4594594595" y="40.5405405405" xlink:href="#block"/><use x="486.4864864865" y="40.5405405405" xlink:href="#block"/><use x="0.0000000000" y="54.0540540541" xlink:href="#block"/><use x="27.0270270270" y="54.0540540541" xlink:href="#block"/><use x="40.5405405405" y="54.0540540541" xlink:href="#block"/><use x="54.0540540541" y="54.0540540541" xlink:href="#block"/><use x="81.0810810811" y="54.0540540541" xlink:href="#block"/><use x="121.6216216216" y="54.0540540541" xlink:href="#block"/><use x="135.1351351351" y="54.0540540541" xlink:href="#block"/><use x="162.1621621622" y="54.0540540541" xlink:href="#block"/><use x="175.6756756757" y="54.0540540541" xlink:href="#block"/><use x="189.1891891892" y="54.0540540541" xlink:href="#block"/><use x="202.7027027027" y="54.0540540541" xlink:href="#block"/><use x="229.7297297297" y="54.0540540541" xlink:href="#block"/><use x="243.2432432432" y="54.0540540541" xlink:href="#block"/><use x="297.2972972973" y="54.0540540541" xlink:href="#block"/><use x="310.8108108108" y="54.0540540541" xlink:href="#block"/><use x="364.8648648649" y="54.0540540541" xlink:href="#block"/><use x="405.4054054054" y="54.0540540541" xlink:href="#block"/><use x="432.4324324324" y="54.0540540541" xlink:href="#block"/><use x="445.9459459459" y="54.0540540541" xlink:href="#block"/><use x="459.4594594595" y="54.0540540541" xlink:href="#block"/><use x="486.4864864865" y="54.0540540541" xlink:href="#block"/><use x="0.0000000000" y="67.5675675676" xlink:href="#block"/><use x="81.0810810811" y="67.5675675676" xlink:href="#block"/><use x="108.1081081081" y="67.5675675676" xlink:href="#block"/><use x="175.6756756757" y="67.5675675676" xlink:href="#block"/><use x="189.1891891892" y="67.5675675676" xlink:href="#block"/><use x="202.7027027027" y="67.5675675676" xlink:href="#block"/><use x="243.2432432432" y="67.5675675676" xlink:href="#block"/><use x="270.2702702703" y="67.5675675676" xlink:href="#block"/><use x="324.3243243243" y="67.5675675676" xlink:href="#block"/><use x="364.8648648649" y="67.5675675676" xlink:href="#block"/><use x="378.3783783784" y="67.5675675676" xlink:href="#block"/><use x="405.4054054054" y="67.5675675676" xlink:href="#block"/><use x="486.4864864865" y="67.5675675676" xlink:href="#block"/><use x="0.0000000000" y="81.0810810811" xlink:href="#block"/><use x="13.5135135135" y="81.0810810811" xlink:href="#block"/><use x="27.0270270270" y="81.0810810811" xlink:href="#block"/><use x="40.5405405405" y="81.0810810811" xlink:href="#block"/><use x="54.0540540541" y="81.0810810811" xlink:href="#block"/><use x="67.5675675676" y="81.0810810811" xlink:href="#block"/><use x="81.0810810811" y="81.0810810811" xlink:href="#block"/><use x="108.1081081081" y="81.0810810811" xlink:href="#block"/><use x="135.1351351351" y="81.0810810811" xlink:href="#block"/><use x="162.1621621622" y="81.0810810811" xlink:href="#block"/><use x="189.1891891892" y="81.0810810811" xlink:href="#block"/><use x="216.2162162162" y="81.0810810811" xlink:href="#block"/><use x="243.2432432432" y="81.0810810811" xlink:href="#block"/><use x="270.2702702703" y="81.0810810811" xlink:href="#block"/><use x="297.2972972973" y="81.0810810811" xlink:href="#block"/><use x="324.3243243243" y="81.0810810811" xlink:href="#block"/><use x="351.3513513514" y="81.0810810811" xlink:href="#block"/><use x="378.3783783784" y="81.0810810811" xlink:href="#block"/><use x="405.4054054054" y="81.0810810811" xlink:href="#block"/><use x="418.9189189189" y="81.0810810811" xlink:href="#block"/><use x="432.4324324324" y="81.0810810811" xlink:href="#block"/><use x="445.9459459459" y="81.0810810811" xlink:href="#block"/><use x="459.4594594595" y="81.0810810811" xlink:href="#block"/><use x="472.9729729730" y="81.0810810811" xlink:href="#block"/><use x="486.4864864865" y="81.0810810811" xlink:href="#block"/><use x="108.1081081081" y="94.5945945946" xlink:href="#block"/><use x="121.6216216216" y="94.5945945946" xlink:href="#block"/><use x="162.1621621622" y="94.5945945946" xlink:href="#block"/><use x="189.1891891892" y="94.5945945946" xlink:href="#block"/><use x="202.7027027027" y="94.5945945946" xlink:href="#block"/><use x="216.2162162162" y="94.5945945946" xlink:href="#block"/><use x="229.7297297297" y="94.5945945946" xlink:href="#block"/><use x="283.7837837838" y="94.5945945946" xlink:href="#block"/><use x="324.3243243243" y="94.5945945946" xlink:href="#block"/><use x="337.8378378378" y="94.5945945946" xlink:href="#block"/><use x="378.3783783784" y="94.5945945946" xlink:href="#block"/><use x="54.0540540541" y="108.1081081081" xlink:href="#block"/><use x="67.5675675676" y="108.1081081081" xlink:href="#block"/><use x="81.0810810811" y="108.1081081081" xlink:href="#block"/><use x="94.5945945946" y="108.1081081081" xlink:href="#block"/><use x="162.1621621622" y="108.1081081081" xlink:href="#block"/><use x="229.7297297297" y="108.1081081081" xlink:href="#block"/><use x="256.7567567568" y="108.1081081081" xlink:href="#block"/><use x="270.2702702703" y="108.1081081081" xlink:href="#block"/><use x="297.2972972973" y="108.1081081081" xlink:href="#block"/><use x="310.8108108108" y="108.1081081081" xlink:href="#block"/><use x="324.3243243243" y="108.1081081081" xlink:href="#block"/><use x="337.8378378378" y="108.1081081081" xlink:href="#block"/><use x="378.3783783784" y="108.1081081081" xlink:href="#block"/><use x="405.4054054054" y="108.1081081081" xlink:href="#block"/><use x="418.9189189189" y="108.1081081081" xlink:href="#block"/><use x="472.9729729730" y="108.1081081081" xlink:href="#block"/><use x="0.0000000000" y="121.6216216216" xlink:href="#block"/><use x="67.5675675676" y="121.6216216216" xlink:href="#block"/><use x="94.5945945946" y="121.6216216216" xlink:href="#block"/><use x="108.1081081081" y="121.6216216216" xlink:href="#block"/><use x="135.1351351351" y="121.6216216216" xlink:href="#block"/><use x="175.6756756757" y="121.6216216216" xlink:href="#block"/><use x="189.1891891892" y="121.6216216216" xlink:href="#block"/><use x="202.7027027027" y="121.6216216216" xlink:href="#block"/><use x="256.7567567568" y="121.6216216216" xlink:href="#block"/><use x="337.8378378378" y="121.6216216216" xlink:href="#block"/><use x="351.3513513514" y="121.6216216216" xlink:href="#block"/><use x="405.4054054054" y="121.6216216216" xlink:href="#block"/><use x="445.9459459459" y="121.6216216216" xlink:href="#block"/><use x="0.0000000000" y="135.1351351351" xlink:href="#block"/><use x="13.5135135135" y="135.1351351351" xlink:href="#block"/><use x="40.5405405405" y="135.1351351351" xlink:href="#block"/><use x="67.5675675676" y="135.1351351351" xlink:href="#block"/><use x="81.0810810811" y="135.1351351351" xlink:href="#block"/><use x="94.5945945946" y="135.1351351351" xlink:href="#block"/><use x="108.1081081081" y="135.1351351351" xlink:href="#block"/><use x="121.6216216216" y="135.1351351351" xlink:href="#block"/><use x="135.1351351351" y="135.1351351351" xlink:href="#block"/><use x="162.1621621622" y="135.1351351351" xlink:href="#block"/><use x="229.7297297297" y="135.1351351351" xlink:href="#block"/><use x="243.2432432432" y="135.1351351351" xlink:href="#block"/><use x="256.7567567568" y="135.1351351351" xlink:href="#block"/><use x="270.2702702703" y="135.1351351351" xlink:href="#block"/><use x="297.2972972973" y="135.1351351351" xlink:href="#block"/><use x="310.8108108108" y="135.1351351351" xlink:href="#block"/><use x="337.8378378378" y="135.1351351351" xlink:href="#block"/><use x="364.8648648649" y="135.1351351351" xlink:href="#block"/><use x="432.4324324324" y="135.1351351351" xlink:href="#block"/><use x="445.9459459459" y="135.1351351351" xlink:href="#block"/><use x="13.5135135135" y="148.6486486486" xlink:href="#block"/><use x="67.5675675676" y="148.6486486486" xlink:href="#block"/><use x="94.5945945946" y="148.6486486486" xlink:href="#block"/><use x="108.1081081081" y="148.6486486486" xlink:href="#block"/><use x="148.6486486486" y="148.6486486486" xlink:href="#block"/><use x="189.1891891892" y="148.6486486486" xlink:href="#block"/><use x="216.2162162162" y="148.6486486486" xlink:href="#block"/><use x="256.7567567568" y="148.6486486486" xlink:href="#block"/><use x="283.7837837838" y="148.6486486486" xlink:href="#block"/><use x="310.8108108108" y="148.6486486486" xlink:href="#block"/><use x="324.3243243243" y="148.6486486486" xlink:href="#block"/><use x="337.8378378378" y="148.6486486486" xlink:href="#block"/><use x="364.8648648649" y="148.6486486486" xlink:href="#block"/><use x="378.3783783784" y="148.6486486486" xlink:href="#block"/><use x="405.4054054054" y="148.6486486486" xlink:href="#block"/><use x="418.9189189189" y="148.6486486486" xlink:href="#block"/><use x="432.4324324324" y="148.6486486486" xlink:href="#block"/><use x="445.9459459459" y="148.6486486486" xlink:href="#block"/><use x="459.4594594595" y="148.6486486486" xlink:href="#block"/><use x="472.9729729730" y="148.6486486486" xlink:href="#block"/><use x="486.4864864865" y="148.6486486486" xlink:href="#block"/><use x="0.0000000000" y="162.1621621622" xlink:href="#block"/><use x="81.0810810811" y="162.1621621622" xlink:href="#block"/><use x="108.1081081081" y="162.1621621622" xlink:href="#block"/><use x="121.6216216216" y="162.1621621622" xlink:href="#block"/><use x="135.1351351351" y="162.1621621622" xlink:href="#block"/><use x="148.6486486486" y="162.1621621622" xlink:href="#block"/><use x="175.6756756757" y="162.1621621622" xlink:href="#block"/><use x="189.1891891892" y="162.1621621622" xlink:href="#block"/><use x="229.7297297297" y="162.1621621622" xlink:href="#block"/><use x="243.2432432432" y="162.1621621622" xlink:href="#block"/><use x="270.2702702703" y="162.1621621622" xlink:href="#block"/><use x="283.7837837838" y="162.1621621622" xlink:href="#block"/><use x="297.2972972973" y="162.1621621622" xlink:href="#block"/><use x="310.8108108108" y="162.1621621622" xlink:href="#block"/><use x="378.3783783784" y="162.1621621622" xlink:href="#block"/><use x="391.8918918919" y="162.1621621622" xlink:href="#block"/><use x="405.4054054054" y="162.1621621622" xlink:href="#block"/><use x="432.4324324324" y="162.1621621622" xlink:href="#block"/><use x="445.9459459459" y="162.1621621622" xlink:href="#block"/><use x="472.9729729730" y="162.1621621622" xlink:href="#block"/><use x="486.4864864865" y="162.1621621622" xlink:href="#block"/><use x="0.0000000000" y="175.6756756757" xlink:href="#block"/><use x="94.5945945946" y="175.6756756757" xlink:href="#block"/><use x="175.6756756757" y="175.6756756757" xlink:href="#block"/><use x="189.1891891892" y="175.6756756757" xlink:href="#block"/><use x="202.7027027027" y="175.6756756757" xlink:href="#block"/><use x="216.2162162162" y="175.6756756757" xlink:href="#block"/><use x="229.7297297297" y="175.6756756757" xlink:href="#block"/><use x="256.7567567568" y="175.6756756757" xlink:href="#block"/><use x="297.2972972973" y="175.6756756757" xlink:href="#block"/><use x="310.8108108108" y="175.6756756757" xlink:href="#block"/><use x="337.8378378378" y="175.6756756757" xlink:href="#block"/><use x="405.4054054054" y="175.6756756757" xlink:href="#block"/><use x="432.4324324324" y="175.6756756757" xlink:href="#block"/><use x="472.9729729730" y="175.6756756757" xlink:href="#block"/><use x="0.0000000000" y="189.1891891892" xlink:href="#block"/><use x="13.5135135135" y="189.1891891892" xlink:href="#block"/><use x="40.5405405405" y="189.1891891892" xlink:href="#block"/><use x="81.0810810811" y="189.1891891892" xlink:href="#block"/><use x="108.1081081081" y="189.1891891892" xlink:href="#block"/><use x="121.6216216216" y="189.1891891892" xlink:href="#block"/><use x="162.1621621622" y="189.1891891892" xlink:href="#block"/><use x="175.6756756757" y="189.1891891892" xlink:href="#block"/><use x="229.7297297297" y="189.1891891892" xlink:href="#block"/><use x="243.2432432432" y="189.1891891892" xlink:href="#block"/><use x="270.2702702703" y="189.1891891892" xlink:href="#block"/><use x="337.8378378378" y="189.1891891892" xlink:href="#block"/><use x="351.3513513514" y="189.1891891892" xlink:href="#block"/><use x="418.9189189189" y="189.1891891892" xlink:href="#block"/><use x="432.4324324324" y="189.1891891892" xlink:href="#block"/><use x="445.9459459459" y="189.1891891892" xlink:href="#block"/><use x="472.9729729730" y="189.1891891892" xlink:href="#block"/><use x="486.4864864865" y="189.1891891892" xlink:href="#block"/><use x="0.0000000000" y="202.7027027027" xlink:href="#block"/><use x="13.5135135135" y="202.7027027027" xlink:href="#block"/><use x="40.5405405405" y="202.7027027027" xlink:href="#block"/><use x="121.6216216216" y="202.7027027027" xlink:href="#block"/><use x="148.6486486486" y="202.7027027027" xlink:href="#block"/><use x="243.2432432432" y="202.7027027027" xlink:href="#block"/><use x="270.2702702703" y="202.7027027027" xlink:href="#block"/><use x="324.3243243243" y="202.7027027027" xlink:href="#block"/><use x="391.8918918919" y="202.7027027027" xlink:href="#block"/><use x="405.4054054054" y="202.7027027027" xlink:href="#block"/><use x="418.9189189189" y="202.7027027027" xlink:href="#block"/><use x="445.9459459459" y="202.7027027027" xlink:href="#block"/><use x="459.4594594595" y="202.7027027027" xlink:href="#block"/><use x="472.9729729730" y="202.7027027027" xlink:href="#block"/><use x="486.4864864865" y="202.7027027027" xlink:href="#block"/><use x="27.0270270270" y="216.2162162162" xlink:href="#block"/><use x="40.5405405405" y="216.2162162162" xlink:href="#block"/><use x="67.5675675676" y="216.2162162162" xlink:href="#block"/><use x="81.0810810811" y="216.2162162162" xlink:href="#block"/><use x="94.5945945946" y="216.2162162162" xlink:href="#block"/><use x="108.1081081081" y="216.2162162162" xlink:href="#block"/><use x="135.1351351351" y="216.2162162162" xlink:href="#block"/><use x="162.1621621622" y="216.2162162162" xlink:href="#block"/><use x="175.6756756757" y="216.2162162162" xlink:href="#block"/><use x="202.7027027027" y="216.2162162162" xlink:href="#block"/><use x="229.7297297297" y="216.2162162162" xlink:href="#block"/><use x="243.2432432432" y="216.2162162162" xlink:href="#block"/><use x="297.2972972973" y="216.2162162162" xlink:href="#block"/><use x="310.8108108108" y="216.2162162162" xlink:href="#block"/><use x="378.3783783784" y="216.2162162162" xlink:href="#block"/><use x="391.8918918919" y="216.2162162162" xlink:href="#block"/><use x="459.4594594595" y="216.2162162162" xlink:href="#block"/><use x="472.9729729730" y="216.2162162162" xlink:href="#block"/><use x="486.4864864865" y="216.2162162162" xlink:href="#block"/><use x="0.0000000000" y="229.7297297297" xlink:href="#block"/><use x="40.5405405405" y="229.7297297297" xlink:href="#block"/><use x="54.0540540541" y="229.7297297297" xlink:href="#block"/><use x="67.5675675676" y="229.7297297297" xlink:href="#block"/><use x="121.6216216216" y="229.7297297297" xlink:href="#block"/><use x="135.1351351351" y="229.7297297297" xlink:href="#block"/><use x="148.6486486486" y="229.7297297297" xlink:href="#block"/><use x="202.7027027027" y="229.7297297297" xlink:href="#block"/><use x="229.7297297297" y="229.7297297297" xlink:href="#block"/><use x="270.2702702703" y="229.7297297297" xlink:href="#block"/><use x="297.2972972973" y="229.7297297297" xlink:href="#block"/><use x="337.8378378378" y="229.7297297297" xlink:href="#block"/><use x="364.8648648649" y="229.7297297297" xlink:href="#block"/><use x="378.3783783784" y="229.7297297297" xlink:href="#block"/><use x="391.8918918919" y="229.7297297297" xlink:href="#block"/><use x="405.4054054054" y="229.7297297297" xlink:href="#block"/><use x="486.4864864865" y="229.7297297297" xlink:href="#block"/><use x="40.5405405405" y="243.2432432432" xlink:href="#block"/><use x="54.0540540541" y="243.2432432432" xlink:href="#block"/><use x="81.0810810811" y="243.2432432432" xlink:href="#block"/><use x="108.1081081081" y="243.2432432432" xlink:href="#block"/><use x="135.1351351351" y="243.2432432432" xlink:href="#block"/><use x="175.6756756757" y="243.2432432432" xlink:href="#block"/><use x="189.1891891892" y="243.2432432432" xlink:href="#block"/><use x="202.7027027027" y="243.2432432432" xlink:href="#block"/><use x="216.2162162162" y="243.2432432432" xlink:href="#block"/><use x="243.2432432432" y="243.2432432432" xlink:href="#block"/><use x="256.7567567568" y="243.2432432432" xlink:href="#block"/><use x="270.2702702703" y="243.2432432432" xlink:href="#block"/><use x="283.7837837838" y="243.2432432432" xlink:href="#block"/><use x="297.2972972973" y="243.2432432432" xlink:href="#block"/><use x="310.8108108108" y="243.2432432432" xlink:href="#block"/><use x="324.3243243243" y="243.2432432432" xlink:href="#block"/><use x="337.8378378378" y="243.2432432432" xlink:href="#block"/><use x="351.3513513514" y="243.2432432432" xlink:href="#block"/><use x="364.8648648649" y="243.2432432432" xlink:href="#block"/><use x="378.3783783784" y="243.2432432432" xlink:href="#block"/><use x="432.4324324324" y="243.2432432432" xlink:href="#block"/><use x="445.9459459459" y="243.2432432432" xlink:href="#block"/><use x="0.0000000000" y="256.7567567568" xlink:href="#block"/><use x="13.5135135135" y="256.7567567568" xlink:href="#block"/><use x="40.5405405405" y="256.7567567568" xlink:href="#block"/><use x="67.5675675676" y="256.7567567568" xlink:href="#block"/><use x="94.5945945946" y="256.7567567568" xlink:href="#block"/><use x="108.1081081081" y="256.7567567568" xlink:href="#block"/><use x="148.6486486486" y="256.7567567568" xlink:href="#block"/><use x="216.2162162162" y="256.7567567568" xlink:href="#block"/><use x="243.2432432432" y="256.7567567568" xlink:href="#block"/><use x="270.2702702703" y="256.7567567568" xlink:href="#block"/><use x="324.3243243243" y="256.7567567568" xlink:href="#block"/><use x="337.8378378378" y="256.7567567568" xlink:href="#block"/><use x="391.8918918919" y="256.7567567568" xlink:href="#block"/><use x="405.4054054054" y="256.7567567568" xlink:href="#block"/><use x="418.9189189189" y="256.7567567568" xlink:href="#block"/><use x="472.9729729730" y="256.7567567568" xlink:href="#block"/><use x="486.4864864865" y="256.7567567568" xlink:href="#block"/><use x="0.0000000000" y="270.2702702703" xlink:href="#block"/><use x="13.5135135135" y="270.2702702703" xlink:href="#block"/><use x="27.0270270270" y="270.2702702703" xlink:href="#block"/><use x="81.0810810811" y="270.2702702703" xlink:href="#block"/><use x="94.5945945946" y="270.2702702703" xlink:href="#block"/><use x="108.1081081081" y="270.2702702703" xlink:href="#block"/><use x="121.6216216216" y="270.2702702703" xlink:href="#block"/><use x="135.1351351351" y="270.2702702703" xlink:href="#block"/><use x="175.6756756757" y="270.2702702703" xlink:href="#block"/><use x="202.7027027027" y="270.2702702703" xlink:href="#block"/><use x="283.7837837838" y="270.2702702703" xlink:href="#block"/><use x="310.8108108108" y="270.2702702703" xlink:href="#block"/><use x="324.3243243243" y="270.2702702703" xlink:href="#block"/><use x="378.3783783784" y="270.2702702703" xlink:href="#block"/><use x="391.8918918919" y="270.2702702703" xlink:href="#block"/><use x="418.9189189189" y="270.2702702703" xlink:href="#block"/><use x="432.4324324324" y="270.2702702703" xlink:href="#block"/><use x="459.4594594595" y="270.2702702703" xlink:href="#block"/><use x="27.0270270270" y="283.7837837838" xlink:href="#block"/><use x="108.1081081081" y="283.7837837838" xlink:href="#block"/><use x="135.1351351351" y="283.7837837838" xlink:href="#block"/><use x="148.6486486486" y="283.7837837838" xlink:href="#block"/><use x="175.6756756757" y="283.7837837838" xlink:href="#block"/><use x="202.7027027027" y="283.7837837838" xlink:href="#block"/><use x="229.7297297297" y="283.7837837838" xlink:href="#block"/><use x="243.2432432432" y="283.7837837838" xlink:href="#block"/><use x="256.7567567568" y="283.7837837838" xlink:href="#block"/><use x="270.2702702703" y="283.7837837838" xlink:href="#block"/><use x="283.7837837838" y="283.7837837838" xlink:href="#block"/><use x="297.2972972973" y="283.7837837838" xlink:href="#block"/><use x="310.8108108108" y="283.7837837838" xlink:href="#block"/><use x="324.3243243243" y="283.7837837838" xlink:href="#block"/><use x="337.8378378378" y="283.7837837838" xlink:href="#block"/><use x="364.8648648649" y="283.7837837838" xlink:href="#block"/><use x="405.4054054054" y="283.7837837838" xlink:href="#block"/><use x="432.4324324324" y="283.7837837838" xlink:href="#block"/><use x="445.9459459459" y="283.7837837838" xlink:href="#block"/><use x="486.4864864865" y="283.7837837838" xlink:href="#block"/><use x="27.0270270270" y="297.2972972973" xlink:href="#block"/><use x="40.5405405405" y="297.2972972973" xlink:href="#block"/><use x="54.0540540541" y="297.2972972973" xlink:href="#block"/><use x="67.5675675676" y="297.2972972973" xlink:href="#block"/><use x="81.0810810811" y="297.2972972973" xlink:href="#block"/><use x="121.6216216216" y="297.2972972973" xlink:href="#block"/><use x="135.1351351351" y="297.2972972973" xlink:href="#block"/><use x="175.6756756757" y="297.2972972973" xlink:href="#block"/><use x="202.7027027027" y="297.2972972973" xlink:href="#block"/><use x="216.2162162162" y="297.2972972973" xlink:href="#block"/><use x="229.7297297297" y="297.2972972973" xlink:href="#block"/><use x="243.2432432432" y="297.2972972973" xlink:href="#block"/><use x="256.7567567568" y="297.2972972973" xlink:href="#block"/><use x="310.8108108108" y="297.2972972973" xlink:href="#block"/><use x="364.8648648649" y="297.2972972973" xlink:href="#block"/><use x="391.8918918919" y="297.2972972973" xlink:href="#block"/><use x="418.9189189189" y="297.2972972973" xlink:href="#block"/><use x="432.4324324324" y="297.2972972973" xlink:href="#block"/><use x="445.9459459459" y="297.2972972973" xlink:href="#block"/><use x="486.4864864865" y="297.2972972973" xlink:href="#block"/><use x="0.0000000000" y="310.8108108108" xlink:href="#block"/><use x="27.0270270270" y="310.8108108108" xlink:href="#block"/><use x="67.5675675676" y="310.8108108108" xlink:href="#block"/><use x="162.1621621622" y="310.8108108108" xlink:href="#block"/><use x="175.6756756757" y="310.8108108108" xlink:href="#block"/><use x="202.7027027027" y="310.8108108108" xlink:href="#block"/><use x="229.7297297297" y="310.8108108108" xlink:href="#block"/><use x="310.8108108108" y="310.8108108108" xlink:href="#block"/><use x="324.3243243243" y="310.8108108108" xlink:href="#block"/><use x="351.3513513514" y="310.8108108108" xlink:href="#block"/><use x="418.9189189189" y="310.8108108108" xlink:href="#block"/><use x="445.9459459459" y="310.8108108108" xlink:href="#block"/><use x="459.4594594595" y="310.8108108108" xlink:href="#block"/><use x="472.9729729730" y="310.8108108108" xlink:href="#block"/><use x="486.4864864865" y="310.8108108108" xlink:href="#block"/><use x="13.5135135135" y="324.3243243243" xlink:href="#block"/><use x="27.0270270270" y="324.3243243243" xlink:href="#block"/><use x="40.5405405405" y="324.3243243243" xlink:href="#block"/><use x="67.5675675676" y="324.3243243243" xlink:href="#block"/><use x="81.0810810811" y="324.3243243243" xlink:href="#block"/><use x="108.1081081081" y="324.3243243243" xlink:href="#block"/><use x="135.1351351351" y="324.3243243243" xlink:href="#block"/><use x="189.1891891892" y="324.3243243243" xlink:href="#block"/><use x="243.2432432432" y="324.3243243243" xlink:href="#block"/><use x="256.7567567568" y="324.3243243243" xlink:href="#block"/><use x="270.2702702703" y="324.3243243243" xlink:href="#block"/><use x="310.8108108108" y="324.3243243243" xlink:href="#block"/><use x="337.8378378378" y="324.3243243243" xlink:href="#block"/><use x="351.3513513514" y="324.3243243243" xlink:href="#block"/><use x="405.4054054054" y="324.3243243243" xlink:href="#block"/><use x="418.9189189189" y="324.3243243243" xlink:href="#block"/><use x="432.4324324324" y="324.3243243243" xlink:href="#block"/><use x="445.9459459459" y="324.3243243243" xlink:href="#block"/><use x="472.9729729730" y="324.3243243243" xlink:href="#block"/><use x="486.4864864865" y="324.3243243243" xlink:href="#block"/><use x="0.0000000000" y="337.8378378378" xlink:href="#block"/><use x="54.0540540541" y="337.8378378378" xlink:href="#block"/><use x="67.5675675676" y="337.8378378378" xlink:href="#block"/><use x="108.1081081081" y="337.8378378378" xlink:href="#block"/><use x="135.1351351351" y="337.8378378378" xlink:href="#block"/><use x="148.6486486486" y="337.8378378378" xlink:href="#block"/><use x="162.1621621622" y="337.8378378378" xlink:href="#block"/><use x="175.6756756757" y="337.8378378378" xlink:href="#block"/><use x="216.2162162162" y="337.8378378378" xlink:href="#block"/><use x="270.2702702703" y="337.8378378378" xlink:href="#block"/><use x="283.7837837838" y="337.8378378378" xlink:href="#block"/><use x="324.3243243243" y="337.8378378378" xlink:href="#block"/><use x="337.8378378378" y="337.8378378378" xlink:href="#block"/><use x="378.3783783784" y="337.8378378378" xlink:href="#block"/><use x="391.8918918919" y="337.8378378378" xlink:href="#block"/><use x="405.4054054054" y="337.8378378378" xlink:href="#block"/><use x="418.9189189189" y="337.8378378378" xlink:href="#block"/><use x="432.4324324324" y="337.8378378378" xlink:href="#block"/><use x="445.9459459459" y="337.8378378378" xlink:href="#block"/><use x="472.9729729730" y="337.8378378378" xlink:href="#block"/><use x="27.0270270270" y="351.3513513514" xlink:href="#block"/><use x="67.5675675676" y="351.3513513514" xlink:href="#block"/><use x="81.0810810811" y="351.3513513514" xlink:href="#block"/><use x="108.1081081081" y="351.3513513514" xlink:href="#block"/><use x="135.1351351351" y="351.3513513514" xlink:href="#block"/><use x="148.6486486486" y="351.3513513514" xlink:href="#block"/><use x="162.1621621622" y="351.3513513514" xlink:href="#block"/><use x="202.7027027027" y="351.3513513514" xlink:href="#block"/><use x="216.2162162162" y="351.3513513514" xlink:href="#block"/><use x="229.7297297297" y="351.3513513514" xlink:href="#block"/><use x="243.2432432432" y="351.3513513514" xlink:href="#block"/><use x="297.2972972973" y="351.3513513514" xlink:href="#block"/><use x="310.8108108108" y="351.3513513514" xlink:href="#block"/><use x="324.3243243243" y="351.3513513514" xlink:href="#block"/><use x="337.8378378378" y="351.3513513514" xlink:href="#block"/><use x="378.3783783784" y="351.3513513514" xlink:href="#block"/><use x="486.4864864865" y="351.3513513514" xlink:href="#block"/><use x="40.5405405405" y="364.8648648649" xlink:href="#block"/><use x="94.5945945946" y="364.8648648649" xlink:href="#block"/><use x="108.1081081081" y="364.8648648649" xlink:href="#block"/><use x="148.6486486486" y="364.8648648649" xlink:href="#block"/><use x="162.1621621622" y="364.8648648649" xlink:href="#block"/><use x="175.6756756757" y="364.8648648649" xlink:href="#block"/><use x="189.1891891892" y="364.8648648649" xlink:href="#block"/><use x="202.7027027027" y="364.8648648649" xlink:href="#block"/><use x="216.2162162162" y="364.8648648649" xlink:href="#block"/><use x="256.7567567568" y="364.8648648649" xlink:href="#block"/><use x="310.8108108108" y="364.8648648649" xlink:href="#block"/><use x="337.8378378378" y="364.8648648649" xlink:href="#block"/><use x="405.4054054054" y="364.8648648649" xlink:href="#block"/><use x="459.4594594595" y="364.8648648649" xlink:href="#block"/><use x="0.0000000000" y="378.3783783784" xlink:href="#block"/><use x="13.5135135135" y="378.3783783784" xlink:href="#block"/><use x="27.0270270270" y="378.3783783784" xlink:href="#block"/><use x="54.0540540541" y="378.3783783784" xlink:href="#block"/><use x="67.5675675676" y="378.3783783784" xlink:href="#block"/><use x="81.0810810811" y="378.3783783784" xlink:href="#block"/><use x="94.5945945946" y="378.3783783784" xlink:href="#block"/><use x="148.6486486486" y="378.3783783784" xlink:href="#block"/><use x="162.1621621622" y="378.3783783784" xlink:href="#block"/><use x="175.6756756757" y="378.3783783784" xlink:href="#block"/><use x="189.1891891892" y="378.3783783784" xlink:href="#block"/><use x="202.7027027027" y="378.3783783784" xlink:href="#block"/><use x="216.2162162162" y="378.3783783784" xlink:href="#block"/><use x="256.7567567568" y="378.3783783784" xlink:href="#block"/><use x="364.8648648649" y="378.3783783784" xlink:href="#block"/><use x="378.3783783784" y="378.3783783784" xlink:href="#block"/><use x="391.8918918919" y="378.3783783784" xlink:href="#block"/><use x="405.4054054054" y="378.3783783784" xlink:href="#block"/><use x="418.9189189189" y="378.3783783784" xlink:href="#block"/><use x="432.4324324324" y="378.3783783784" xlink:href="#block"/><use x="445.9459459459" y="378.3783783784" xlink:href="#block"/><use x="459.4594594595" y="378.3783783784" xlink:href="#block"/><use x="472.9729729730" y="378.3783783784" xlink:href="#block"/><use x="486.4864864865" y="378.3783783784" xlink:href="#block"/><use x="108.1081081081" y="391.8918918919" xlink:href="#block"/><use x="135.1351351351" y="391.8918918919" xlink:href="#block"/><use x="162.1621621622" y="391.8918918919" xlink:href="#block"/><use x="216.2162162162" y="391.8918918919" xlink:href="#block"/><use x="270.2702702703" y="391.8918918919" xlink:href="#block"/><use x="310.8108108108" y="391.8918918919" xlink:href="#block"/><use x="337.8378378378" y="391.8918918919" xlink:href="#block"/><use x="378.3783783784" y="391.8918918919" xlink:href="#block"/><use x="432.4324324324" y="391.8918918919" xlink:href="#block"/><use x="445.9459459459" y="391.8918918919" xlink:href="#block"/><use x="0.0000000000" y="405.4054054054" xlink:href="#block"/><use x="13.5135135135" y="405.4054054054" xlink:href="#block"/><use x="27.0270270270" y="405.4054054054" xlink:href="#block"/><use x="40.5405405405" y="405.4054054054" xlink:href="#block"/><use x="54.0540540541" y="405.4054054054" xlink:href="#block"/><use x="67.5675675676" y="405.4054054054" xlink:href="#block"/><use x="81.0810810811" y="405.4054054054" xlink:href="#block"/><use x="108.1081081081" y="405.4054054054" xlink:href="#block"/><use x="135.1351351351" y="405.4054054054" xlink:href="#block"/><use x="175.6756756757" y="405.4054054054" xlink:href="#block"/><use x="189.1891891892" y="405.4054054054" xlink:href="#block"/><use x="216.2162162162" y="405.4054054054" xlink:href="#block"/><use x="229.7297297297" y="405.4054054054" xlink:href="#block"/><use x="243.2432432432" y="405.4054054054" xlink:href="#block"/><use x="297.2972972973" y="405.4054054054" xlink:href="#block"/><use x="324.3243243243" y="405.4054054054" xlink:href="#block"/><use x="337.8378378378" y="405.4054054054" xlink:href="#block"/><use x="351.3513513514" y="405.4054054054" xlink:href="#block"/><use x="364.8648648649" y="405.4054054054" xlink:href="#block"/><use x="378.3783783784" y="405.4054054054" xlink:href="#block"/><use x="405.4054054054" y="405.4054054054" xlink:href="#block"/><use x="432.4324324324" y="405.4054054054" xlink:href="#block"/><use x="445.9459459459" y="405.4054054054" xlink:href="#block"/><use x="0.0000000000" y="418.9189189189" xlink:href="#block"/><use x="81.0810810811" y="418.9189189189" xlink:href="#block"/><use x="108.1081081081" y="418.9189189189" xlink:href="#block"/><use x="135.1351351351" y="418.9189189189" xlink:href="#block"/><use x="216.2162162162" y="418.9189189189" xlink:href="#block"/><use x="229.7297297297" y="418.9189189189" xlink:href="#block"/><use x="310.8108108108" y="418.9189189189" xlink:href="#block"/><use x="324.3243243243" y="418.9189189189" xlink:href="#block"/><use x="351.3513513514" y="418.9189189189" xlink:href="#block"/><use x="378.3783783784" y="418.9189189189" xlink:href="#block"/><use x="432.4324324324" y="418.9189189189" xlink:href="#block"/><use x="445.9459459459" y="418.9189189189" xlink:href="#block"/><use x="486.4864864865" y="418.9189189189" xlink:href="#block"/><use x="0.0000000000" y="432.4324324324" xlink:href="#block"/><use x="27.0270270270" y="432.4324324324" xlink:href="#block"/><use x="40.5405405405" y="432.4324324324" xlink:href="#block"/><use x="54.0540540541" y="432.4324324324" xlink:href="#block"/><use x="81.0810810811" y="432.4324324324" xlink:href="#block"/><use x="108.1081081081" y="432.4324324324" xlink:href="#block"/><use x="121.6216216216" y="432.4324324324" xlink:href="#block"/><use x="135.1351351351" y="432.4324324324" xlink:href="#block"/><use x="162.1621621622" y="432.4324324324" xlink:href="#block"/><use x="175.6756756757" y="432.4324324324" xlink:href="#block"/><use x="202.7027027027" y="432.4324324324" xlink:href="#block"/><use x="216.2162162162" y="432.4324324324" xlink:href="#block"/><use x="229.7297297297" y="432.4324324324" xlink:href="#block"/><use x="256.7567567568" y="432.4324324324" xlink:href="#block"/><use x="270.2702702703" y="432.4324324324" xlink:href="#block"/><use x="283.7837837838" y="432.4324324324" xlink:href="#block"/><use x="297.2972972973" y="432.4324324324" xlink:href="#block"/><use x="324.3243243243" y="432.4324324324" xlink:href="#block"/><use x="337.8378378378" y="432.4324324324" xlink:href="#block"/><use x="378.3783783784" y="432.4324324324" xlink:href="#block"/><use x="391.8918918919" y="432.4324324324" xlink:href="#block"/><use x="405.4054054054" y="432.4324324324" xlink:href="#block"/><use x="418.9189189189" y="432.4324324324" xlink:href="#block"/><use x="432.4324324324" y="432.4324324324" xlink:href="#block"/><use x="472.9729729730" y="432.4324324324" xlink:href="#block"/><use x="486.4864864865" y="432.4324324324" xlink:href="#block"/><use x="0.0000000000" y="445.9459459459" xlink:href="#block"/><use x="27.0270270270" y="445.9459459459" xlink:href="#block"/><use x="40.5405405405" y="445.9459459459" xlink:href="#block"/><use x="54.0540540541" y="445.9459459459" xlink:href="#block"/><use x="81.0810810811" y="445.9459459459" xlink:href="#block"/><use x="135.1351351351" y="445.9459459459" xlink:href="#block"/><use x="148.6486486486" y="445.9459459459" xlink:href="#block"/><use x="189.1891891892" y="445.9459459459" xlink:href="#block"/><use x="270.2702702703" y="445.9459459459" xlink:href="#block"/><use x="283.7837837838" y="445.9459459459" xlink:href="#block"/><use x="337.8378378378" y="445.9459459459" xlink:href="#block"/><use x="364.8648648649" y="445.9459459459" xlink:href="#block"/><use x="378.3783783784" y="445.9459459459" xlink:href="#block"/><use x="405.4054054054" y="445.9459459459" xlink:href="#block"/><use x="445.9459459459" y="445.9459459459" xlink:href="#block"/><use x="472.9729729730" y="445.9459459459" xlink:href="#block"/><use x="486.4864864865" y="445.9459459459" xlink:href="#block"/><use x="0.0000000000" y="459.4594594595" xlink:href="#block"/><use x="27.0270270270" y="459.4594594595" xlink:href="#block"/><use x="40.5405405405" y="459.4594594595" xlink:href="#block"/><use x="54.0540540541" y="459.4594594595" xlink:href="#block"/><use x="81.0810810811" y="459.4594594595" xlink:href="#block"/><use x="135.1351351351" y="459.4594594595" xlink:href="#block"/><use x="148.6486486486" y="459.4594594595" xlink:href="#block"/><use x="175.6756756757" y="459.4594594595" xlink:href="#block"/><use x="189.1891891892" y="459.4594594595" xlink:href="#block"/><use x="202.7027027027" y="459.4594594595" xlink:href="#block"/><use x="216.2162162162" y="459.4594594595" xlink:href="#block"/><use x="229.7297297297" y="459.4594594595" xlink:href="#block"/><use x="243.2432432432" y="459.4594594595" xlink:href="#block"/><use x="256.7567567568" y="459.4594594595" xlink:href="#block"/><use x="283.7837837838" y="459.4594594595" xlink:href="#block"/><use x="297.2972972973" y="459.4594594595" xlink:href="#block"/><use x="337.8378378378" y="459.4594594595" xlink:href="#block"/><use x="351.3513513514" y="459.4594594595" xlink:href="#block"/><use x="378.3783783784" y="459.4594594595" xlink:href="#block"/><use x="391.8918918919" y="459.4594594595" xlink:href="#block"/><use x="445.9459459459" y="459.4594594595" xlink:href="#block"/><use x="472.9729729730" y="459.4594594595" xlink:href="#block"/><use x="0.0000000000" y="472.9729729730" xlink:href="#block"/><use x="81.0810810811" y="472.9729729730" xlink:href="#block"/><use x="148.6486486486" y="472.9729729730" xlink:href="#block"/><use x="175.6756756757" y="472.9729729730" xlink:href="#block"/><use x="189.1891891892" y="472.9729729730" xlink:href="#block"/><use x="243.2432432432" y="472.9729729730" xlink:href="#block"/><use x="256.7567567568" y="472.9729729730" xlink:href="#block"/><use x="324.3243243243" y="472.9729729730" xlink:href="#block"/><use x="391.8918918919" y="472.9729729730" xlink:href="#block"/><use x="432.4324324324" y="472.9729729730" xlink:href="#block"/><use x="445.9459459459" y="472.9729729730" xlink:href="#block"/><use x="459.4594594595" y="472.9729729730" xlink:href="#block"/><use x="486.4864864865" y="472.9729729730" xlink:href="#block"/><use x="0.0000000000" y="486.4864864865" xlink:href="#block"/><use x="13.5135135135" y="486.4864864865" xlink:href="#block"/><use x="27.0270270270" y="486.4864864865" xlink:href="#block"/><use x="40.5405405405" y="486.4864864865" xlink:href="#block"/><use x="54.0540540541" y="486.4864864865" xlink:href="#block"/><use x="67.5675675676" y="486.4864864865" xlink:href="#block"/><use x="81.0810810811" y="486.4864864865" xlink:href="#block"/><use x="121.6216216216" y="486.4864864865" xlink:href="#block"/><use x="135.1351351351" y="486.4864864865" xlink:href="#block"/><use x="189.1891891892" y="486.4864864865" xlink:href="#block"/><use x="216.2162162162" y="486.4864864865" xlink:href="#block"/><use x="243.2432432432" y="486.4864864865" xlink:href="#block"/><use x="256.7567567568" y="486.4864864865" xlink:href="#block"/><use x="297.2972972973" y="486.4864864865" xlink:href="#block"/><use x="310.8108108108" y="486.4864864865" xlink:href="#block"/><use x="324.3243243243" y="486.4864864865" xlink:href="#block"/><use x="364.8648648649" y="486.4864864865" xlink:href="#block"/><use x="378.3783783784" y="486.4864864865" xlink:href="#block"/><use x="432.4324324324" y="486.4864864865" xlink:href="#block"/><use x="445.9459459459" y="486.4864864865" xlink:href="#block"/><use x="459.4594594595" y="486.4864864865" xlink:href="#block"/><use x="472.9729729730" y="486.4864864865" xlink:href="#block"/><use x="486.4864864865" y="486.4864864865" xlink:href="#block"/></svg>
